<svg width="80" height="80" viewBox="0 0 80 80" fill="none" xmlns="http://www.w3.org/2000/svg">
<path d="M22.2102 73.5C18.1453 73.5 13.9109 72.4867 10.7214 69.3379L22.2102 73.5ZM22.2102 73.5H57.7898C61.8353 73.5 66.0716 72.4957 69.2495 69.3377C72.4632 66.1856 73.5 61.956 73.5 57.9071V22.0929C73.5 18.044 72.4632 13.8144 69.2495 10.6623C66.0715 7.50429 61.8352 6.5 57.7898 6.5H22.2102C18.1453 6.5 13.9109 7.51327 10.7214 10.6621L22.2102 73.5ZM35.6032 48.7379V43.0535H44.4555V48.7379H35.6032ZM44.455 51.9485C44.4549 51.9485 44.455 51.9447 44.4554 51.9375C44.4552 51.945 44.455 51.9486 44.455 51.9485ZM35.6038 51.952C35.6037 51.9521 35.6035 51.9477 35.6033 51.9384C35.6038 51.9473 35.6039 51.9519 35.6038 51.952ZM6.5 57.9071C6.5 61.9469 7.52174 66.1789 10.7211 69.3375L10.7211 10.6625C7.52174 13.8211 6.5 18.0531 6.5 22.0929V57.9071Z" fill="url(#paint0_linear_2_20)" stroke="black" stroke-width="13"/>
<defs>
<linearGradient id="paint0_linear_2_20" x1="40" y1="13" x2="40" y2="67" gradientUnits="userSpaceOnUse">
<stop stop-color="#FDA700"/>
<stop offset="1" stop-color="#FF7A00"/>
</linearGradient>
</defs>
</svg>
